<?xml version="1.0" encoding="UTF-8"?>
<svg version="1.1" xmlns="http://www.w3.org/2000/svg" width="467" height="350" viewBox="0 0 467 350">
<defs>
  <linearGradient id="purpleGrad" x1="0" y1="0" x2="0" y2="1">
    <stop offset="0%" stop-color="#8b5cf6"/>
    <stop offset="45%" stop-color="#7c3aed"/>
    <stop offset="100%" stop-color="#6d28d9"/>
  </linearGradient>
  <linearGradient id="purpleLight" x1="0" y1="0" x2="0" y2="1">
    <stop offset="0%" stop-color="#c4b5fd"/>
    <stop offset="100%" stop-color="#a78bfa"/>
  </linearGradient>
  <linearGradient id="purpleDark" x1="0" y1="0" x2="0" y2="1">
    <stop offset="0%" stop-color="#6d28d9"/>
    <stop offset="100%" stop-color="#5b21b6"/>
  </linearGradient>
</defs>
<path d="M0 0 C3.37509166 2.49113908 5.28733997 5.00900371 6.625 8.9375 C7.06315044 11.86115837 7.30843648 14.72728209 7.44921875 17.6796875 C7.3764042 19.9056002 7.3764042 19.9056002 8.625 20.9375 C9.04435884 25.55044726 8.45418336 28.23779868 5.625 31.9375 C4.965 31.9375 4.305 31.9375 3.625 31.9375 C3.34765288 33.99650093 3.10418058 36.06008293 2.875 38.125 C2.73578125 39.27355469 2.5965625 40.42210937 2.453125 41.60546875 C2.67175563 45.84392159 3.50467661 47.08893105 6.625 49.9375 C9.18444151 51.34358649 11.83643143 52.39876102 14.5625 53.4375 C21.19794277 55.97976863 25.6557632 58.56166549 29.375 64.9375 C31.6095128 70.30033073 31.90939826 75.7084456 32.30859375 81.45703125 C32.43272475 83.13608384 32.5570808 84.8151198 32.68164062 86.49414062 C32.87302427 89.1203359 33.0622634 91.7466416 33.24731445 94.37329102 C33.42822208 96.92253108 33.61787036 99.47100927 33.80859375 102.01953125 C33.86075546 102.79375931 33.91291718 103.56798737 33.96665955 104.36567688 C34.24275962 107.9898552 34.67228771 111.35348808 35.65234375 114.85766602 C36.92473075 119.60080366 36.95832629 124.24481825 37.00390625 129.1328125 C37.02090073 130.08388885 37.0378952 131.03496521 37.05540466 132.01486206 C37.10816352 135.03067524 37.14865985 138.0464781 37.1875 141.0625 C37.23159583 144.08559472 37.27841164 147.10859014 37.33030701 150.13156128 C37.36197505 152.00577247 37.38895164 153.88007063 37.41053772 155.75442505 C37.48158003 160.25525669 37.73815167 164.50668085 38.625 168.9375 C39.73739034 176.66102841 37.83373325 181.2777466 33.64453125 187.78515625 C31.31123492 190.27189953 29.96851944 190.6545424 26.625 190.9375 C26.79 189.803125 26.955 188.66875 27.125 187.5 C27.48132203 185.22617481 27.48132203 185.22617481 27.625 182.9375 C26.965 182.9375 26.305 182.9375 25.625 182.9375 C25.57079299 180.37471301 25.53122993 177.81308517 25.5 175.25 C25.47486328 174.1681543 25.47486328 174.1681543 25.44921875 173.06445312 C25.41028356 168.80104933 25.9974319 165.82557935 27.625 161.9375 C27.96529949 153.69090898 25.97995615 146.07854185 23.609375 138.25390625 C20.36507079 127.32369088 20.07070425 116.25604212 19.625 104.9375 C18.965 104.9375 18.305 104.9375 17.625 104.9375 C17.11427627 122.67767324 17.11427627 122.67767324 19.125 140.25 C20.88039136 149.87350679 20.9672882 159.43678231 21 169.1875 C21.00749268 169.9368985 21.01498535 170.686297 21.02270508 171.45840454 C21.10042694 180.92531633 20.42308674 190.0471982 19.09765625 199.421875 C17.10573894 213.76241322 17.45179363 227.96208388 17.76196289 242.40478516 C18.22416044 265.87249279 18.22416044 265.87249279 14.59545898 277.5703125 C12.38320229 285.24614755 10.22811141 296.17242807 13.9296875 303.53125 C15.51090233 305.86363377 15.51090233 305.86363377 17.21484375 307.90234375 C18.83805583 310.24498501 19.24034621 312.13780468 19.625 314.9375 C15.99459389 316.5846897 13.04668285 317.25708716 9.0625 317.3125 C8.13308594 317.34085937 7.20367187 317.36921875 6.24609375 317.3984375 C2.66275109 316.76828186 1.75734851 315.90239445 -0.375 312.9375 C-0.92566436 309.66599441 -0.81571983 306.4413776 -0.73046875 303.1328125 C-0.71842155 301.69770828 -0.71842155 301.69770828 -0.70613098 300.23361206 C-0.67714403 297.17601026 -0.62093102 294.1196685 -0.5625 291.0625 C-0.51989337 288.01263543 -0.48297374 284.96280545 -0.45100403 281.91281128 C-0.42943564 280.01616832 -0.40085102 278.11958851 -0.36430359 276.22317505 C-0.29566203 271.63757848 -0.54458378 267.46300601 -1.375 262.9375 C-1.41978471 260.98488678 -1.41540998 259.03065634 -1.3671875 257.078125 C-1.35042969 255.96050781 -1.33367187 254.84289062 -1.31640625 253.69140625 C-1.27302036 251.40216239 -1.22129828 249.1130572 -1.16015625 246.82421875 C-1.06689114 239.3714889 -1.85531855 232.49234444 -3.19181824 225.19918823 C-4.94190902 215.30950903 -5.4420488 205.3241344 -6.0625 195.3125 C-6.19253423 193.32286257 -6.32338935 191.33327861 -6.45507812 189.34375 C-6.77114443 184.54222777 -7.07623667 179.74012861 -7.375 174.9375 C-8.035 174.9375 -8.695 174.9375 -9.375 174.9375 C-9.36557373 175.63480225 -9.35614746 176.33210449 -9.34643555 177.05053711 C-9.28539109 185.22982358 -9.64406295 193.34007556 -10.1875 201.5 C-10.23035126 202.16001007 -10.27320251 202.82002014 -10.31735229 203.50003052 C-10.82517401 211.20089104 -11.51586801 218.7842677 -12.9375 226.375 C-14.9819195 237.3648543 -14.93146371 248.50965246 -15.1640625 259.65234375 C-15.26037453 264.04707866 -15.47201456 268.37641375 -15.90625 272.75 C-16.36551881 277.73879699 -16.42242874 282.65659042 -16.3671875 287.66015625 C-16.35934235 288.42041611 -16.35149719 289.18067596 -16.34341431 289.963974 C-16.30677996 293.1151281 -16.26408917 296.26595407 -16.20361328 299.41674805 C-16.1614307 301.74792797 -16.13791716 304.07870069 -16.1171875 306.41015625 C-16.09856659 307.12261002 -16.07994568 307.83506378 -16.0607605 308.56910706 C-16.04557096 311.47909853 -16.03693797 313.44703649 -17.7175293 315.88525391 C-20.23763656 317.48514525 -22.3620271 317.2974118 -25.3125 317.25 C-26.35277344 317.24613281 -27.39304688 317.24226563 -28.46484375 317.23828125 C-31.28633812 316.94666371 -32.9723251 316.3906841 -35.375 314.9375 C-34.90934302 309.93168747 -33.4707514 307.78373659 -30.375 303.9375 C-27.01418721 295.36742738 -28.0580297 287.46609975 -30.50878906 278.84545898 C-35.44029001 260.86660758 -34.84041427 242.89236896 -34.50390625 224.39160156 C-34.31834569 213.67057519 -34.30723694 203.23597196 -35.62388611 192.58508301 C-36.61140991 184.51220602 -36.72353884 176.4999569 -36.6875 168.375 C-36.6872583 167.23321289 -36.6872583 167.23321289 -36.68701172 166.06835938 C-36.67380145 157.04763385 -36.38858335 148.33801675 -34.44921875 139.49633789 C-32.21479407 128.55920505 -33.13396939 117.0397406 -33.375 105.9375 C-34.035 105.9375 -34.695 105.9375 -35.375 105.9375 C-35.30345703 107.73960938 -35.30345703 107.73960938 -35.23046875 109.578125 C-35.23427827 116.07462884 -36.49550715 122.3210969 -37.6875 128.6875 C-38.00750977 130.46640625 -38.00750977 130.46640625 -38.33398438 132.28125 C-39.60880516 139.25280726 -41.08079516 146.13614728 -42.81323242 153.00878906 C-43.57846665 156.9982501 -43.97957857 160.50222095 -42.3828125 164.29296875 C-40.99587699 167.93233052 -41.1609524 171.41752842 -41.25 175.25 C-41.25902344 175.99056641 -41.26804688 176.73113281 -41.27734375 177.49414062 C-41.30075787 179.30873467 -41.33662385 181.12316071 -41.375 182.9375 C-42.035 182.9375 -42.695 182.9375 -43.375 182.9375 C-43.705 182.6075 -44.035 182.2775 -44.375 181.9375 C-44.045 182.494375 -43.715 183.05125 -43.375 183.625 C-42.2440399 186.24034522 -42.21837026 188.1181646 -42.375 190.9375 C-45.53531676 190.62576807 -46.97704879 190.37947236 -49.140625 187.9765625 C-49.63046875 187.17992187 -50.1203125 186.38328125 -50.625 185.5625 C-51.12515625 184.77101562 -51.6253125 183.97953125 -52.140625 183.1640625 C-54.19692585 179.45491223 -54.48769449 176.65900253 -54.4284668 172.49145508 C-54.4148259 171.37632034 -54.401185 170.26118561 -54.38713074 169.11225891 C-54.36636978 167.90603378 -54.34560883 166.69980865 -54.32421875 165.45703125 C-54.29591728 163.59409676 -54.29591728 163.59409676 -54.26704407 161.69352722 C-54.22512506 159.06146584 -54.18085693 156.42955718 -54.13305664 153.79760742 C-54.08469261 151.10821008 -54.04308648 148.41885188 -54.00805664 145.72924805 C-53.95628836 141.84662685 -53.89191076 137.96440399 -53.82421875 134.08203125 C-53.80953049 132.88592728 -53.79484222 131.6898233 -53.77970886 130.45747375 C-53.6533345 124.26992369 -53.15646579 118.86610782 -51.375 112.9375 C-48.94134187 103.34861847 -49.02338074 93.84113796 -48.984375 83.9921875 C-48.81768457 74.82421372 -47.3282949 68.04897194 -42.75 60.125 C-39.10848544 56.77097343 -34.84574462 54.98818343 -30.375 52.9375 C-28.53703389 52.07227361 -26.70348269 51.19759162 -24.875 50.3125 C-23.65296875 49.73628906 -23.65296875 49.73628906 -22.40625 49.1484375 C-20.07746426 47.95772823 -20.07746426 47.95772823 -18.375 44.9375 C-18.73110871 40.52175202 -19.42815931 36.26591456 -20.375 31.9375 C-21.365 31.6075 -22.355 31.2775 -23.375 30.9375 C-25.65145664 27.7025353 -25.63300605 24.80759071 -25.375 20.9375 C-25.045 20.6075 -24.715 20.2775 -24.375 19.9375 C-24.10389196 17.87766829 -23.85827219 15.81445885 -23.625 13.75 C-22.7575173 7.84593861 -21.84614141 4.87636267 -17.375 0.9375 C-11.98586229 -2.32315475 -5.84559375 -1.84027951 0 0 Z " fill="url(#purpleGrad)" transform="translate(241.375,17.0625)"/>
<path d="M0 0 C0.66 0 1.32 0 2 0 C2.06993164 0.66829834 2.13986328 1.33659668 2.21191406 2.02514648 C3.66351548 15.62749196 5.47567979 28.77309783 9 42 C12.23375244 54.23639453 12.23375244 54.23639453 10.0234375 59.1875 C8.67086664 62.90448863 8.5434243 66.38610855 8.375 70.3125 C8.31699219 71.42334961 8.31699219 71.42334961 8.2578125 72.55664062 C8.16418295 74.37071309 8.08103149 76.18532116 8 78 C8.66 78 9.32 78 10 78 C10.66 76.68 11.32 75.36 12 74 C11.25 78.75 11.25 78.75 9 81 C6.24072656 78.24072656 6.48216757 75.78845948 6 72 C5.67 71.67 5.34 71.34 5 71 C4.34 71.99 3.68 72.98 3 74 C2.98541748 73.2565332 2.97083496 72.51306641 2.95581055 71.74707031 C2.60722652 53.48421399 2.60722652 53.48421399 0.4375 35.375 C-1.60846866 23.51346946 -1.65604423 11.91283431 0 0 Z " fill="#c4b5fd" transform="translate(259,122)"/>
<path d="M0 0 C0.33 0 0.66 0 1 0 C1.02505615 1.31718018 1.0501123 2.63436035 1.07592773 3.99145508 C1.17000882 8.87241562 1.27022792 13.75323408 1.37231445 18.6340332 C1.41566064 20.7476062 1.45733594 22.86121414 1.49731445 24.97485352 C1.55502449 28.01068664 1.61871701 31.04634389 1.68359375 34.08203125 C1.70030624 35.02899368 1.71701874 35.97595612 1.73423767 36.95161438 C1.75418289 37.83230087 1.77412811 38.71298737 1.79467773 39.62036133 C1.81799416 40.78285149 1.81799416 40.78285149 1.84178162 41.96882629 C1.93355377 44.20332493 1.93355377 44.20332493 3 47 C4.11375 46.649375 5.2275 46.29875 6.375 45.9375 C10 45 10 45 12 46 C12 51.28 12 56.56 12 62 C11.34 62 10.68 62 10 62 C9.67 61.67 9.34 61.34 9 61 C9.33 61.556875 9.66 62.11375 10 62.6875 C11.1309601 65.30284522 11.15662974 67.1806646 11 70 C7.83968324 69.68826807 6.39795121 69.44197236 4.234375 67.0390625 C3.74453125 66.24242187 3.2546875 65.44578125 2.75 64.625 C2.24984375 63.83351562 1.7496875 63.04203125 1.234375 62.2265625 C-0.85120287 58.46460241 -1.10570102 55.65361798 -1.02172852 51.42700195 C-1.00163223 50.28604568 -0.98153595 49.14508942 -0.96083069 47.96955872 C-0.93379562 46.73823715 -0.90676056 45.50691559 -0.87890625 44.23828125 C-0.85529526 42.97735153 -0.83168427 41.71642181 -0.80735779 40.4172821 C-0.74370794 37.06841368 -0.67550343 33.71970065 -0.60510254 30.37097168 C-0.53435247 26.95246614 -0.46957548 23.533848 -0.40429688 20.11523438 C-0.27504366 13.41003865 -0.1397856 6.70498397 0 0 Z " fill="url(#purpleDark)" transform="translate(188,138)"/>
<path d="M0 0 C0.33 0 0.66 0 1 0 C1.061875 1.9490625 1.061875 1.9490625 1.125 3.9375 C1.64290692 8.92039237 3.60963791 11.94520305 6.625 15.859375 C8.161992 18.2521921 8.60889676 20.20361186 9 23 C5.36959389 24.6471897 2.42168285 25.31958716 -1.5625 25.375 C-2.95662109 25.41753906 -2.95662109 25.41753906 -4.37890625 25.4609375 C-7 25 -7 25 -9.32421875 23.5546875 C-11.84331222 19.71439115 -11.43211621 16.23286067 -11.25 11.75 C-11.23195312 10.90953125 -11.21390625 10.0690625 -11.1953125 9.203125 C-11.14830798 7.13492605 -11.07656724 5.06731559 -11 3 C-10.67 3 -10.34 3 -10 3 C-9.67 7.29 -9.34 11.58 -9 16 C-8.67 13.69 -8.34 11.38 -8 9 C-6 9 -6 9 -4.375 10.5 C-3.92125 10.995 -3.4675 11.49 -3 12 C-2.67 9.69 -2.34 7.38 -2 5 C-1.34 5 -0.68 5 0 5 C0 3.35 0 1.7 0 0 Z " fill="url(#purpleDark)" transform="translate(252,309)"/>
<path d="M0 0 C1.32 0.33 2.64 0.66 4 1 C3.938125 2.03125 3.87625 3.0625 3.8125 4.125 C4.01407947 8.29097561 5.10114421 10.3605264 7 14 C7.1875 16.875 7.1875 16.875 7 19 C3.91212684 18.67911369 2.39663294 18.40867819 0.19921875 16.14453125 C-4.82891566 8.38795181 -4.82891566 8.38795181 -4 3 C-3.01 3 -2.02 3 -1 3 C-0.67 2.01 -0.34 1.02 0 0 Z " fill="url(#purpleGrad)" transform="translate(192,189)"/>
<path d="M0 0 C0.33 0 0.66 0 1 0 C1.74874375 7.41810941 1.0554494 12.1416988 -3.19921875 18.3203125 C-5.40684353 20.37948529 -7.04174746 20.66738557 -10 21 C-9.32975871 13.89544236 -9.32975871 13.89544236 -6 11 C-6 10.01 -6 9.02 -6 8 C-4.625 6.3125 -4.625 6.3125 -3 5 C-2.34 5 -1.68 5 -1 5 C-0.67 3.35 -0.34 1.7 0 0 Z " fill="url(#purpleDark)" transform="translate(278,187)"/>
<path d="M0 0 C0.66 0 1.32 0 2 0 C5.02252426 6.04504851 2.8518941 15.50430747 2 22 C1.01 22.33 0.02 22.66 -1 23 C-1.13690844 15.27227893 -0.75166913 7.69118596 0 0 Z " fill="#ddd6fe" transform="translate(232,192)"/>
<path d="M0 0 C0.33 0.99 0.66 1.98 1 3 C0.00365796 4.33606898 -0.9969384 5.66896837 -2 7 C-2.78263939 9.80264419 -2.78263939 9.80264419 -3.1875 12.75 C-3.34605469 13.73484375 -3.50460938 14.7196875 -3.66796875 15.734375 C-3.83232422 16.85585937 -3.83232422 16.85585937 -4 18 C-4.66 17.67 -5.32 17.34 -6 17 C-6.33 23.6 -6.66 30.2 -7 37 C-7.33 37 -7.66 37 -8 37 C-8.11795981 33.54196269 -8.18782752 30.08445443 -8.25 26.625 C-8.28351563 25.65949219 -8.31703125 24.69398437 -8.3515625 23.69921875 C-8.47387457 14.5869696 -6.34262842 6.79567331 0 0 Z " fill="url(#purpleDark)" transform="translate(201,75)"/>
<path d="M0 0 C0.66 0 1.32 0 2 0 C2.33 2.31 2.66 4.62 3 7 C4.65 7.33 6.3 7.66 8 8 C8 8.33 8 8.66 8 9 C6.08364783 9.05423638 4.16685075 9.09289963 2.25 9.125 C0.64898437 9.15980469 0.64898437 9.15980469 -0.984375 9.1953125 C-3.92470106 9.00487687 -5.52361878 8.52670104 -8 7 C-7.67 5.68 -7.34 4.36 -7 3 C-5.5459375 2.814375 -5.5459375 2.814375 -4.0625 2.625 C-2.5465625 2.315625 -2.5465625 2.315625 -1 2 C-0.67 1.34 -0.34 0.68 0 0 Z " fill="url(#purpleDark)" transform="translate(214,325)"/>
<path d="M0 0 C0.66 0 1.32 0 2 0 C3.3300103 8.97756951 3.08788039 17.94831966 3 27 C2.67 27 2.34 27 2 27 C1.67 21.72 1.34 16.44 1 11 C0.34 11.66 -0.32 12.32 -1 13 C-0.67 8.71 -0.34 4.42 0 0 Z " fill="#c4b5fd" transform="translate(206,123)"/>
<path d="M0 0 C2.32039314 3.48058971 2 3.98142912 2 8 C2.33 8.33 2.66 8.66 3 9 C2.71395102 10.67542976 2.38218767 12.34385343 2 14 C-0.77022619 11.35021843 -1.93556937 10.00941316 -2.1875 6.0625 C-2 3 -2 3 0 0 Z " fill="url(#purpleDark)" transform="translate(218,35)"/>
<path d="M0 0 C0.33 0 0.66 0 1 0 C1.08131463 1.43655854 1.13933559 2.8744483 1.1875 4.3125 C1.22230469 5.11300781 1.25710937 5.91351563 1.29296875 6.73828125 C0.93021568 9.53873497 0.09500088 10.18906704 -2 12 C-2.66 12.99 -3.32 13.98 -4 15 C-3.39425587 4.24281984 -3.39425587 4.24281984 0 0 Z " fill="#ddd6fe" transform="translate(207,133)"/>
<path d="M0 0 C0.99 0.33 1.98 0.66 3 1 C3 3.64 3 6.28 3 9 C2.01 9.33 1.02 9.66 0 10 C0 8.68 0 7.36 0 6 C-0.66 6 -1.32 6 -2 6 C-2.33 5.01 -2.66 4.02 -3 3 C-2.01 2.01 -1.02 1.02 0 0 Z " fill="url(#purpleGrad)" transform="translate(275,135)"/>
<path d="M0 0 C5.35048061 0.37328935 7.50912907 1.9957657 11 6 C8 7 8 7 5 7 C5 6.34 5 5.68 5 5 C4.34 5 3.68 5 3 5 C3 4.34 3 3.68 3 3 C2.01 3 1.02 3 0 3 C0 2.01 0 1.02 0 0 Z " fill="url(#purpleGrad)" transform="translate(235,16)"/>
<path d="M0 0 C2.4375 0.375 2.4375 0.375 5 1 C5.33 1.66 5.66 2.32 6 3 C4.1875 5 4.1875 5 2 7 C1.01 7 0.02 7 -1 7 C-0.67 4.69 -0.34 2.38 0 0 Z " fill="url(#purpleDark)" transform="translate(269,201)"/>
<path d="M0 0 C0.66 0 1.32 0 2 0 C2.32613618 4.67461851 1.70582788 7.16674383 -1 11 C-1.33 10.34 -1.66 9.68 -2 9 C-2.99 9.33 -3.98 9.66 -5 10 C-4.1875 8.0625 -4.1875 8.0625 -3 6 C-2.01 5.67 -1.02 5.34 0 5 C0 3.35 0 1.7 0 0 Z " fill="url(#purpleDark)" transform="translate(248,38)"/>
<path d="M0 0 C0.33 1.32 0.66 2.64 1 4 C-2.3 4.33 -5.6 4.66 -9 5 C-4.16129032 0 -4.16129032 0 0 0 Z " fill="url(#purpleDark)" transform="translate(231,16)"/>
<path d="M0 0 C0.99 0.495 0.99 0.495 2 1 C2 1.66 2 2.32 2 3 C2.86625 2.79375 3.7325 2.5875 4.625 2.375 C8.36428602 1.95952378 10.54942141 2.60333724 14 4 C14 4.33 14 4.66 14 5 C12.22950311 5.05410687 10.45853151 5.09284119 8.6875 5.125 C7.20830078 5.15980469 7.20830078 5.15980469 5.69921875 5.1953125 C3 5 3 5 0 3 C0 2.01 0 1.02 0 0 Z " fill="url(#purpleDark)" transform="translate(242,329)"/>
<path d="M0 0 C0.33 0 0.66 0 1 0 C1.1953125 6.0546875 1.1953125 6.0546875 1 8 C-1 10 -1 10 -3.8203125 10.1953125 C-4.91085938 10.17210937 -6.00140625 10.14890625 -7.125 10.125 C-8.22070312 10.10695313 -9.31640625 10.08890625 -10.4453125 10.0703125 C-11.28835937 10.04710937 -12.13140625 10.02390625 -13 10 C-13 9.67 -13 9.34 -13 9 C-12.31292969 8.93941406 -11.62585938 8.87882812 -10.91796875 8.81640625 C-10.01691406 8.73261719 -9.11585938 8.64882813 -8.1875 8.5625 C-6.84751953 8.44068359 -6.84751953 8.44068359 -5.48046875 8.31640625 C-2.87256441 8.06510233 -2.87256441 8.06510233 0 7 C0 4.69 0 2.38 0 0 Z " fill="url(#purpleDark)" transform="translate(224,323)"/>
<path d="M0 0 C0.33 0 0.66 0 1 0 C1 3.96 1 7.92 1 12 C0.34 12 -0.32 12 -1 12 C-2.11445498 9.77109005 -2.16480286 8.46944894 -2.1875 6 C-2.20167969 5.29875 -2.21585938 4.5975 -2.23046875 3.875 C-2 2 -2 2 0 0 Z " fill="url(#purpleDark)" transform="translate(199,188)"/>
<path d="M0 0 C1.125 3.75 1.125 3.75 0 6 C0.89363605 8.60931266 0.89363605 8.60931266 2 11 C0.35 10.67 -1.3 10.34 -3 10 C-2.25 3.375 -2.25 3.375 0 0 Z " fill="url(#purpleDark)" transform="translate(221,21)"/>
<path d="M0 0 C1.65 0.33 3.3 0.66 5 1 C4.34 2.32 3.68 3.64 3 5 C2.01 5 1.02 5 0 5 C-0.33 4.01 -0.66 3.02 -1 2 C-0.67 1.34 -0.34 0.68 0 0 Z " fill="url(#purpleDark)" transform="translate(268,159)"/>
<path d="M0 0 C0.99 0 1.98 0 3 0 C3 1.65 3 3.3 3 5 C0.5625 4.625 0.5625 4.625 -2 4 C-2.33 3.34 -2.66 2.68 -3 2 C-2.34 2 -1.68 2 -1 2 C-0.67 1.34 -0.34 0.68 0 0 Z " fill="url(#purpleDark)" transform="translate(196,203)"/>
<path d="M0 0 C0.33 0 0.66 0 1 0 C1 1.98 1 3.96 1 6 C0.01 6.495 0.01 6.495 -1 7 C-1.99 6.34 -2.98 5.68 -4 5 C-2.69254251 3.31295807 -1.35827971 1.64639965 0 0 Z " fill="url(#purpleDark)" transform="translate(211,321)"/>
<path d="M0 0 C0.33 0.99 0.66 1.98 1 3 C-0.8125 5.6875 -0.8125 5.6875 -3 8 C-3.66 8 -4.32 8 -5 8 C-3.8141763 4.62496331 -2.72426311 2.35277269 0 0 Z " fill="url(#purpleDark)" transform="translate(201,75)"/>
<path d="M0 0 C0.66 0.33 1.32 0.66 2 1 C1.67 2.98 1.34 4.96 1 7 C-0.5 5.6875 -0.5 5.6875 -2 4 C-2 3.01 -2 2.02 -2 1 C-1.34 0.67 -0.68 0.34 0 0 Z " fill="#ddd6fe" transform="translate(246,17)"/>
</svg>