<?xml version="1.0" encoding="UTF-8"?>
<svg version="1.1" xmlns="http://www.w3.org/2000/svg" width="225" height="225">
<path d="M0 0 C74.25 0 148.5 0 225 0 C225 74.25 225 148.5 225 225 C150.75 225 76.5 225 0 225 C0 150.75 0 76.5 0 0 Z " fill="#FEFEFE" transform="translate(0,0)"/>
<path d="M0 0 C2.9375 2.4375 2.9375 2.4375 5 5 C5.495 5.495 5.495 5.495 6 6 C6.26082134 7.99383425 6.45957503 9.99599467 6.625 12 C6.72039062 13.093125 6.81578125 14.18625 6.9140625 15.3125 C6.94242188 16.199375 6.97078125 17.08625 7 18 C6.505 18.495 6.505 18.495 6 19 C6.28082798 21.34023315 6.62468554 23.67305036 7 26 C7.33333333 28.33333333 7.66666667 30.66666667 8 33 C9.15628906 33.38091797 9.15628906 33.38091797 10.3359375 33.76953125 C11.33882812 34.11371094 12.34171875 34.45789062 13.375 34.8125 C14.37273437 35.14894531 15.37046875 35.48539063 16.3984375 35.83203125 C19 37 19 37 21 40 C21.11780513 43.28381799 21.04780073 46.50479107 20.921875 49.78515625 C20.77177333 56.62729076 21.7336435 63.24514488 22.71453857 70.00646973 C23.18060912 73.2612904 23.60562888 76.52143676 24.03515625 79.78125 C24.20466797 81.05484375 24.37417969 82.3284375 24.54882812 83.640625 C24.89543093 86.24475859 25.2417792 88.84892606 25.58789062 91.453125 C25.75611328 92.71640625 25.92433594 93.9796875 26.09765625 95.28125 C26.32207397 96.96831055 26.32207397 96.96831055 26.55102539 98.68945312 C26.87039072 101.04431659 27.20265117 103.39744679 27.54370117 105.74926758 C27.9427687 108.59227677 28.19529491 111.32004172 28.25 114.1875 C28.27578125 115.00605469 28.3015625 115.82460937 28.328125 116.66796875 C27.92089142 119.562236 26.97497029 120.87562298 25 123 C22.3125 124.25 22.3125 124.25 20 125 C19.67 124.34 19.34 123.68 19 123 C19.33 122.34 19.66 121.68 20 121 C19.67 120.67 19.34 120.34 19 120 C18.90105545 118.5653041 18.87029265 117.12559603 18.875 115.6875 C18.87113281 114.51767578 18.87113281 114.51767578 18.8671875 113.32421875 C18.9957789 111.07386919 19.43198231 109.17309798 20 107 C20.95568624 99.95522718 19.20149034 94.06762389 16.92822266 87.48120117 C14.64851452 80.57311763 13.96890762 73.69105824 13.359375 66.47265625 C13.38717955 63.17699194 13.38717955 63.17699194 12 62 C10.41108181 67.56121366 9.44889143 72.21335997 10 78 C10.98142463 79.60299356 11.9656125 81.20452384 12.9765625 82.7890625 C19.45506645 96.7846092 16.44675651 116.11783183 12 130 C9.36901267 139.14790993 8.90350771 147.44536765 9.12573242 156.86889648 C9.24217428 167.16142536 7.2535575 177.2393275 4 187 C3.41525796 192.9036456 4.07380362 196.75723149 7 202 C7 203.32 7 204.64 7 206 C4.36 206 1.72 206 -1 206 C-2.04154054 202.87537838 -2.19237079 200.51690158 -2.29711914 197.234375 C-2.33708511 196.04884033 -2.37705109 194.86330566 -2.41822815 193.6418457 C-2.45681442 192.35753662 -2.4954007 191.07322754 -2.53515625 189.75 C-2.57822533 188.41299349 -2.62164204 187.07599814 -2.66539001 185.73901367 C-2.7563304 182.93139458 -2.84429134 180.12370365 -2.92993164 177.31591797 C-3.03885913 173.74654899 -3.1531609 170.17737986 -3.26950932 166.60824585 C-3.35939333 163.84219057 -3.4473115 161.07607563 -3.53457451 158.30993652 C-3.59605565 156.36318189 -3.6583758 154.4164538 -3.72071838 152.46972656 C-3.91589647 146.05060727 -4.03917227 139.6437905 -3.99278259 133.22160339 C-4.00142511 130.56133283 -4.19368681 127.9544513 -4.5 125.3125 C-4.5928125 124.48363281 -4.685625 123.65476562 -4.78125 122.80078125 C-4.8534375 122.20652344 -4.925625 121.61226563 -5 121 C-6.17143845 124.51431534 -6.1431668 127.67651595 -6.1328125 131.33203125 C-6.13417709 132.06805573 -6.13554169 132.8040802 -6.13694763 133.56240845 C-6.13898424 135.97915043 -6.13262562 138.39577035 -6.125 140.8125 C-6.12378143 141.63734894 -6.12256287 142.46219788 -6.12130737 143.31204224 C-6.08743275 162.88991671 -5.91667664 182.52816032 -4.00366211 202.02368164 C-3.99995061 205.04014396 -4.39853864 206.49118424 -6 209 C-8.64 209 -11.28 209 -14 209 C-14.6875 207.3125 -14.6875 207.3125 -15 205 C-14.505 204.319375 -14.01 203.63875 -13.5 202.9375 C-10.76958634 197.59043991 -12.11789505 191.75753678 -13.8984375 186.19140625 C-14.55635815 184.44766919 -15.24198006 182.7139257 -15.96484375 180.99609375 C-18.89966258 172.50173134 -19.18788962 164.28913294 -19.25 155.375 C-19.45972911 144.79387499 -21.00104998 135.30693349 -23.83349609 125.13037109 C-25.8131032 118.01612027 -26.97100797 111.42196054 -27 104 C-27.02705308 106.41674224 -27.04686438 108.8331794 -27.0625 111.25 C-27.07087891 111.93191406 -27.07925781 112.61382812 -27.08789062 113.31640625 C-27.10428392 116.69342554 -27.05628768 119.77291639 -26 123 C-26.66 123 -27.32 123 -28 123 C-28.495 123.99 -28.495 123.99 -29 125 C-31.5 124.0625 -31.5 124.0625 -34 122 C-35.15125142 116.70200804 -33.78117889 111.12577836 -32.6328125 105.92578125 C-32.00595332 103.0275249 -31.46527067 100.11950683 -30.93823242 97.20166016 C-29.92451746 91.59889249 -28.81812405 86.07452991 -27.375 80.5625 C-24.74560887 70.33403084 -23.7417998 59.39111671 -26 49 C-26.41549567 46.2230163 -26.56078363 43.76466332 -26 41 C-21.51870937 35.54978167 -15.70251219 34.46691993 -9 33 C-9.50199354 27.25297245 -9.50199354 27.25297245 -13 23 C-15.05615529 17.36560045 -13.97415187 10.76997644 -13 5 C-9.85443 -0.14729637 -5.75775236 -1.50050516 0 0 Z " fill="#171717" transform="translate(110,12)"/>
<path d="M0 0 C3.64357367 5.4653605 3.04640131 12.0168235 2.98193359 18.43911743 C2.84367052 32.34480545 3.473745 46.23222121 4 60.125 C4.09665599 62.74087428 4.19301234 65.35675965 4.2890625 67.97265625 C4.52259149 74.315236 4.75980336 80.65766943 5 87 C3.02 87.99 3.02 87.99 1 89 C-0.64897141 67.03710424 -1.09220179 45.01735818 -1.125 23 C-1.1275882 22.19237213 -1.13017639 21.38474426 -1.13284302 20.55264282 C-1.13870775 18.24338369 -1.13711925 15.93426023 -1.1328125 13.625 C-1.13479141 12.94185226 -1.13677032 12.25870453 -1.1388092 11.55485535 C-1.11976015 7.60268557 -0.7557443 3.87853677 0 0 Z " fill="#EEEEEE" transform="translate(104,130)"/>
<path d="M0 0 C2.44011015 3.81581011 2.47221929 7.86251144 2.8125 12.25 C3.39367981 18.65207917 4.53033096 24.42384961 6.625 30.5 C9.97221317 40.33587802 9.38289021 48.00037145 7 58 C5.02 58.495 5.02 58.495 3 59 C3.02320312 57.87464844 3.04640625 56.74929687 3.0703125 55.58984375 C3.95061965 38.15859379 3.95061965 38.15859379 -1.125 22.0625 C-4.07919581 17.23731352 -3.53716782 13.32056497 -2.31640625 8.046875 C-1.59298216 5.34701477 -0.82470231 2.67046463 0 0 Z " fill="#E8E8E8" transform="translate(122,71)"/>
<path d="M0 0 C0.33 0 0.66 0 1 0 C2.04033476 8.8647012 2.32003367 17.71213558 2.5625 26.625 C2.60579715 28.12110312 2.64941456 29.61719701 2.69335938 31.11328125 C2.79926182 34.74208861 2.9008418 38.37100135 3 42 C1.68 42.66 0.36 43.32 -1 44 C-1.81543225 34.22937434 -2.13105625 24.49107331 -2.1875 14.6875 C-2.20039062 13.58414307 -2.21328125 12.48078613 -2.2265625 11.34399414 C-2.22785156 10.30621826 -2.22914062 9.26844238 -2.23046875 8.19921875 C-2.23457764 7.26940186 -2.23868652 6.33958496 -2.24291992 5.3815918 C-2 3 -2 3 0 0 Z " fill="#E7E7E7" transform="translate(106,175)"/>
<path d="M0 0 C2.66699645 2.21451202 3.88460776 3.42225382 4.57421875 6.875 C4.61160156 7.90625 4.64898437 8.9375 4.6875 10 C4.83986183 13.48255613 5.00906728 16.64855275 6 20 C5.34 20 4.68 20 4 20 C3.67 20.66 3.34 21.32 3 22 C0.5 21.0625 0.5 21.0625 -2 19 C-3.3476913 12.79800315 -1.41429739 6.04864687 0 0 Z " fill="#202020" transform="translate(78,115)"/>
<path d="M0 0 C0.33 0 0.66 0 1 0 C1.06058594 1.00160156 1.12117188 2.00320312 1.18359375 3.03515625 C1.26808405 4.37761331 1.35272768 5.72006072 1.4375 7.0625 C1.55931641 9.02896484 1.55931641 9.02896484 1.68359375 11.03515625 C1.97898249 14.73663238 2.43265388 18.33370448 3 22 C0 20 0 20 -1 17 C-1.09599519 14.46742101 -1.13937035 11.96907608 -1.125 9.4375 C-1.12886719 8.75236328 -1.13273437 8.06722656 -1.13671875 7.36132812 C-1.12669335 2.2533867 -1.12669335 2.2533867 0 0 Z " fill="#D7D7D7" transform="translate(83,114)"/>
<path d="M0 0 C2.29013653 3.4352048 2.17842973 4.985331 2 9 C1.34 9 0.68 9 0 9 C0 16.26 0 23.52 0 31 C-0.33 31 -0.66 31 -1 31 C-1.02915731 26.95834861 -1.04685173 22.9167245 -1.0625 18.875 C-1.07087891 17.73289063 -1.07925781 16.59078125 -1.08789062 15.4140625 C-1.09111328 14.30546875 -1.09433594 13.196875 -1.09765625 12.0546875 C-1.10289307 11.03874512 -1.10812988 10.02280273 -1.11352539 8.97607422 C-0.99652309 5.90885274 -0.56776417 3.01366866 0 0 Z " fill="#CDCDCD" transform="translate(104,130)"/>
<path d="M0 0 C0.33 0 0.66 0 1 0 C1.33 4.95 1.66 9.9 2 15 C0.02 15.99 0.02 15.99 -2 17 C-2.05398987 14.72942623 -2.09278742 12.45848712 -2.125 10.1875 C-2.14820312 8.92292969 -2.17140625 7.65835938 -2.1953125 6.35546875 C-2 3 -2 3 0 0 Z " fill="#CBCBCB" transform="translate(107,202)"/>
<path d="M0 0 C1.9789756 3.63616656 2.5251065 6.88425629 3 11 C2.01 10.34 1.02 9.68 0 9 C-0.29296875 6.8359375 -0.29296875 6.8359375 -0.1875 4.375 C-0.16042969 3.55773437 -0.13335937 2.74046875 -0.10546875 1.8984375 C-0.05326172 0.95871094 -0.05326172 0.95871094 0 0 Z " fill="#E4E4E4" transform="translate(83,125)"/>
</svg>
